<?xml version="1.0" standalone="no"?><!-- Generator: Gravit.io --><svg xmlns="http://www.w3.org/2000/svg" xmlns:xlink="http://www.w3.org/1999/xlink" style="isolation:isolate" viewBox="0 0 650 400" width="650" height="400"><defs><clipPath id="_clipPath_NxN31a6haEJxQL29J7YGF5t4dx66Oyuh"><rect width="650" height="400"/></clipPath></defs><g clip-path="url(#_clipPath_NxN31a6haEJxQL29J7YGF5t4dx66Oyuh)"><g id="Group"><path d=" M 279.618 345.778 C 275.322 345.758 175.941 344.261 175.941 246.649 C 175.941 112.125 254.622 54.223 279.599 54.223 C 290.308 54.223 292.563 61.628 292.563 67.828 L 292.563 332.172 C 292.563 339.674 286.751 345.778 279.618 345.778 Z " fill="rgb(67,199,91)"/><path d=" M 279.599 63.941 C 280.457 63.888 281.318 64.014 282.125 64.31 C 282.281 64.466 282.845 65.574 282.845 67.828 L 282.845 332.172 C 282.845 334.271 281.367 336.059 279.676 336.059 C 270.055 336.001 185.66 332.91 185.66 246.649 C 185.66 113.7 263.66 63.941 279.599 63.941 Z  M 279.599 44.504 C 249.374 44.504 166.223 106.702 166.223 246.649 C 166.223 355.496 279.599 355.496 279.599 355.496 C 292.135 355.496 302.282 345.039 302.282 332.172 L 302.282 67.828 C 302.282 54.961 294.721 44.504 279.599 44.504 Z " fill="rgb(199,67,67)"/><path d=" M 253.689 287.467 C 239.519 287.467 214.815 279.769 214.815 258.311 C 214.815 231.585 253.689 235.22 253.689 209.719 C 253.689 189.057 234.252 187.852 234.252 170.845 C 234.252 153.837 253.689 156.267 253.689 131.971" fill="rgb(67,199,91)" vector-effect="non-scaling-stroke" stroke-width="12.5" stroke="rgb(199,67,67)" stroke-linejoin="miter" stroke-linecap="round" stroke-miterlimit="10"/><path d=" M 344.382 345.778 C 337.249 345.778 331.437 339.674 331.437 332.172 L 331.437 67.828 C 331.437 61.628 333.692 54.223 344.401 54.223 C 369.397 54.223 448.059 112.125 448.059 246.649 C 448.059 344.261 348.678 345.758 344.382 345.778 Z " fill="rgb(204,223,60)"/><path d=" M 344.401 63.941 C 360.34 63.941 438.34 113.7 438.34 246.649 C 438.34 332.91 353.945 336.001 344.401 336.059 C 342.633 336.059 341.156 334.271 341.156 332.172 L 341.156 67.828 C 341.156 65.574 341.719 64.466 341.836 64.33 C 342.652 64.015 343.528 63.882 344.401 63.941 Z  M 344.401 44.504 C 329.279 44.504 321.719 54.961 321.719 67.828 L 321.719 332.172 C 321.719 345.039 331.865 355.496 344.401 355.496 C 344.401 355.496 457.778 355.496 457.778 246.649 C 457.778 106.702 374.626 44.504 344.401 44.504 Z " fill="rgb(199,67,67)"/><path d=" M 370.311 287.467 C 384.481 287.467 409.185 279.769 409.185 258.311 C 409.185 231.585 370.311 235.22 370.311 209.719 C 370.311 189.057 389.748 187.852 389.748 170.845 C 389.748 153.837 370.311 156.267 370.311 131.971" fill="none" vector-effect="non-scaling-stroke" stroke-width="12.5" stroke="rgb(199,67,67)" stroke-linejoin="miter" stroke-linecap="round" stroke-miterlimit="10"/></g><defs><filter id="NhjvxEMLqPcVCgjpxQYb7n4uocwS42Tk" x="-200%" y="-200%" width="400%" height="400%"><feOffset xmlns="http://www.w3.org/2000/svg" in="SourceAlpha" result="offOut" dx="2" dy="2"/><feGaussianBlur xmlns="http://www.w3.org/2000/svg" in="offOut" result="blurOut" stdDeviation="2.5"/><feComponentTransfer xmlns="http://www.w3.org/2000/svg" in="blurOut" result="opacOut"><feFuncA xmlns="http://www.w3.org/2000/svg" type="table" tableValues="0 0.5"/></feComponentTransfer><feBlend xmlns="http://www.w3.org/2000/svg" in="SourceGraphic" in2="opacOut" mode="normal"/></filter></defs><g filter="url(#NhjvxEMLqPcVCgjpxQYb7n4uocwS42Tk)"><g transform="matrix(1,0,0,1,12,130)"><text transform="matrix(1,0,0,1,0,38.479)" style="font-family:&quot;Open Sans&quot;;font-weight:400;font-size:36px;font-style:normal;fill:#000000;stroke:none;">Hey I  am </text><text transform="matrix(1,0,0,1,0,87.504)" style="font-family:&quot;Open Sans&quot;;font-weight:400;font-size:36px;font-style:normal;fill:#000000;stroke:none;">your left </text><text transform="matrix(1,0,0,1,0,136.529)" style="font-family:&quot;Open Sans&quot;;font-weight:400;font-size:36px;font-style:normal;fill:#000000;stroke:none;">Brain</text></g></g><defs><filter id="u2trRkDwIO8uMcTbDkU5337dbXJzviMm" x="-200%" y="-200%" width="400%" height="400%"><feOffset xmlns="http://www.w3.org/2000/svg" in="SourceAlpha" result="offOut" dx="2" dy="2"/><feGaussianBlur xmlns="http://www.w3.org/2000/svg" in="offOut" result="blurOut" stdDeviation="2.5"/><feComponentTransfer xmlns="http://www.w3.org/2000/svg" in="blurOut" result="opacOut"><feFuncA xmlns="http://www.w3.org/2000/svg" type="table" tableValues="0 0.5"/></feComponentTransfer><feBlend xmlns="http://www.w3.org/2000/svg" in="SourceGraphic" in2="opacOut" mode="normal"/></filter></defs><g filter="url(#u2trRkDwIO8uMcTbDkU5337dbXJzviMm)"><g transform="matrix(1,0,0,1,469.778,130)"><text transform="matrix(1,0,0,1,0,38.479)" style="font-family:&quot;Open Sans&quot;;font-weight:400;font-size:36px;font-style:normal;fill:#000000;stroke:none;">Hi I  am </text><text transform="matrix(1,0,0,1,0,87.504)" style="font-family:&quot;Open Sans&quot;;font-weight:400;font-size:36px;font-style:normal;fill:#000000;stroke:none;">your Right </text><text transform="matrix(1,0,0,1,0,136.529)" style="font-family:&quot;Open Sans&quot;;font-weight:400;font-size:36px;font-style:normal;fill:#000000;stroke:none;">Brain</text></g></g></g></svg>