<?xml version="1.0" standalone="no"?><!-- Generator: Gravit.io --><svg xmlns="http://www.w3.org/2000/svg" xmlns:xlink="http://www.w3.org/1999/xlink" style="isolation:isolate" viewBox="0 0 650 400" width="650" height="400"><defs><clipPath id="_clipPath_7Sw7Rxzyyikf6nJxQwXH6qM77xs1FiRk"><rect width="650" height="400"/></clipPath></defs><g clip-path="url(#_clipPath_7Sw7Rxzyyikf6nJxQwXH6qM77xs1FiRk)"><defs><filter id="G90LL6yHpWNRVtxgRA5FGs9Nz5XejUo6" x="-200%" y="-200%" width="400%" height="400%"><feOffset xmlns="http://www.w3.org/2000/svg" in="SourceAlpha" result="offOut" dx="2" dy="2"/><feGaussianBlur xmlns="http://www.w3.org/2000/svg" in="offOut" result="blurOut" stdDeviation="2.5"/><feComponentTransfer xmlns="http://www.w3.org/2000/svg" in="blurOut" result="opacOut"><feFuncA xmlns="http://www.w3.org/2000/svg" type="table" tableValues="0 0.5"/></feComponentTransfer><feBlend xmlns="http://www.w3.org/2000/svg" in="SourceGraphic" in2="opacOut" mode="normal"/></filter></defs><g filter="url(#G90LL6yHpWNRVtxgRA5FGs9Nz5XejUo6)"><path d=" M 11 117 C 11 56.841 59.841 8 120 8 C 180.159 8 229 56.841 229 117 C 229 177.159 180.159 226 120 226 C 59.841 226 11 177.159 11 117 Z " fill="rgb(235,235,235)"/></g><g id="Group"><path d=" M 102.872 194.108 C 100.6 194.097 48.033 193.306 48.033 141.674 C 48.033 70.52 89.65 39.893 102.862 39.893 C 108.526 39.893 109.719 43.81 109.719 47.089 L 109.719 186.911 C 109.719 190.879 106.645 194.108 102.872 194.108 Z " fill="rgb(15,17,15)"/><path d=" M 102.862 45.033 C 103.316 45.005 103.771 45.071 104.198 45.228 C 104.28 45.311 104.578 45.897 104.578 47.089 L 104.578 186.911 C 104.578 188.021 103.797 188.967 102.903 188.967 C 97.814 188.936 53.173 187.301 53.173 141.674 C 53.173 71.352 94.431 45.033 102.862 45.033 Z  M 102.862 34.752 C 86.875 34.752 42.892 67.651 42.892 141.674 C 42.892 199.248 102.862 199.248 102.862 199.248 C 109.493 199.248 114.859 193.717 114.859 186.911 L 114.859 47.089 C 114.859 40.283 110.86 34.752 102.862 34.752 Z " fill="rgb(46,46,46)"/><path d=" M 89.157 163.265 C 81.662 163.265 68.595 159.193 68.595 147.843 C 68.595 133.707 89.157 135.629 89.157 122.141 C 89.157 111.212 78.876 110.574 78.876 101.579 C 78.876 92.583 89.157 93.868 89.157 81.017" fill="rgb(15,17,15)" vector-effect="non-scaling-stroke" stroke-width="12.5" stroke="rgb(199,67,67)" stroke-linejoin="miter" stroke-linecap="round" stroke-miterlimit="10"/><path d=" M 137.128 194.108 C 133.355 194.108 130.281 190.879 130.281 186.911 L 130.281 47.089 C 130.281 43.81 131.474 39.893 137.138 39.893 C 150.36 39.893 191.967 70.52 191.967 141.674 C 191.967 193.306 139.4 194.097 137.128 194.108 Z " fill="rgb(15,17,15)"/><path d=" M 137.138 45.033 C 145.569 45.033 186.826 71.352 186.826 141.674 C 186.826 187.301 142.186 188.936 137.138 188.967 C 136.203 188.967 135.421 188.021 135.421 186.911 L 135.421 47.089 C 135.421 45.897 135.72 45.311 135.781 45.239 C 136.213 45.072 136.676 45.002 137.138 45.033 Z  M 137.138 34.752 C 129.14 34.752 125.14 40.283 125.14 47.089 L 125.14 186.911 C 125.14 193.717 130.507 199.248 137.138 199.248 C 137.138 199.248 197.107 199.248 197.107 141.674 C 197.107 67.651 153.125 34.752 137.138 34.752 Z " fill="rgb(46,46,46)"/><path d=" M 150.843 163.265 C 158.338 163.265 171.405 159.193 171.405 147.843 C 171.405 133.707 150.843 135.629 150.843 122.141 C 150.843 111.212 161.124 110.574 161.124 101.579 C 161.124 92.583 150.843 93.868 150.843 81.017" fill="none" vector-effect="non-scaling-stroke" stroke-width="12.5" stroke="rgb(199,67,67)" stroke-linejoin="miter" stroke-linecap="round" stroke-miterlimit="10"/></g></g></svg>